<svg id="visual" viewBox="0 0 1920 1080" width="1920" height="1080" xmlns="http://www.w3.org/2000/svg" xmlns:xlink="http://www.w3.org/1999/xlink" version="1.1"><rect x="0" y="0" width="1920" height="1080" fill="#1f2937"></rect><defs><linearGradient id="grad1_0" x1="43.8%" y1="100%" x2="100%" y2="0%"><stop offset="14.444444444444446%" stop-color="#1f2937" stop-opacity="1"></stop><stop offset="85.55555555555554%" stop-color="#1f2937" stop-opacity="1"></stop></linearGradient></defs><defs><linearGradient id="grad2_0" x1="0%" y1="100%" x2="56.3%" y2="0%"><stop offset="14.444444444444446%" stop-color="#1f2937" stop-opacity="1"></stop><stop offset="85.55555555555554%" stop-color="#1f2937" stop-opacity="1"></stop></linearGradient></defs><g transform="translate(1920, 1080)"><path d="M-486 0C-458.6 -76 -431.1 -152 -394 -227.5C-357 -303 -310.3 -377.9 -243 -420.9C-175.7 -463.9 -87.9 -474.9 0 -486L0 0Z" fill="#4f46e5"></path></g><g transform="translate(0, 0)"><path d="M486 0C455.8 74.4 425.6 148.8 388.8 224.5C352.1 300.2 308.9 377.1 243 420.9C177.1 464.7 88.6 475.3 0 486L0 0Z" fill="#4f46e5"></path></g></svg>